# xmcd CD Database Entry
#
# Track frame offsets:
# 150
# 14320
# 24962
# 42090
# 57837
# 81515
# 94582
# 107755
# 116865
# 127562
# 146257
# 160790
# 175137
#
# Disc length: 2488 seconds
#
# Revision: 1
# Processed by: cddbd v1.4PL0 Copyright (c) Steve Scherf et al.
# Submitted via: tcd 2.0b
#
DISCID=9709b60d
DTITLE=Carcoarco - Tu Toca o Que ?
DYEAR=1900
DGENRE=
TTITLE0=Choro de 78
TTITLE1=Forró da Ferdinanda
TTITLE2=Friozinho da Manhã
TTITLE3=Apanhei-te Cavaquinho
TTITLE4=Viva Raimundo
TTITLE5=Segura Ele
TTITLE6=Naquele Tempo
TTITLE7=1 X 0
TTITLE8=Juba
TTITLE9=Madrugada
TTITLE10=Não me Toques
TTITLE11=Bandolim Abandonado
TTITLE12=Delicado
EXTD=
EXTT0=
EXTT1=
EXTT2=
EXTT3=
EXTT4=
EXTT5=
EXTT6=
EXTT7=
EXTT8=
EXTT9=
EXTT10=
EXTT11=
EXTT12=
PLAYORDER=
